_________________________  Visit us at _________________________
  
http://p2pdl.com  ____________________________  http://p2pdl.com


Crush 2013 BRRip 720p x264 AAC - PRiSTiNE


Genre: Thriller 
Plot: A secret admirer's crush on a high school athlete takes a fatal turn. 
Director: Malik Bader
Stars: Sarah Bolger, Lucas Till, Crystal Reed.
Rated: PG-13 for disturbing thematic material, violence, sensuality, some teen drinking, and language.

Info: 
http://www.imdb.com/title/tt2093977/

Trailer:


Format                         : MPEG-4
File size                      : 600 MiB
Duration                       : 1h 34mn
Overall bit rate               : 885 Kbps
Video Format                   : AVC
Duration                       : 1h 34mn
Bit rate                       : 803 Kbps
Width                          : 1 280 pixels
Height                         : 720 pixels
Display aspect ratio           : 16:9
Frame rate mode                : Constant
Frame rate                     : 23.976 fps
Stream size                    : 544 MiB (91%)
Writing library                : x264 core 130 r2273
Audio Format                   : AAC
Bit rate                       : 80.0 Kbps
Channel(s)                     : 2 channels
Channel positions              : Front: L R
Sampling rate                  : 48.0 KHz
Stream size                    : 54.3 MiB (9%)
Subtitle                       : N/a
Source                         : 720p.BluRay.AC3-5.1.x264-AXED(Thanks)

Screenshots:
 
http://img6.imageshack.us/img6/723/tinybaycrush2013brrip72.jpg


----------------------------------------------------------------------------------------------------


Encoded using revolutionary 10bit encoding, which enables us to provide you more crispier 
and sharper images at small sizes, just make sure you follow our instructions without a fault.
Recommend to you to use latest version of VLC player. Install K-Lite Codec Pack or shark007 codecs
in case of any kind of problem in playback (For non-VLC Media Player users). Alternatively, install
Core AVC codecs, the fastest decoder that there is coupled with Community Center Codec Pack and play
on Windows Media Player Classic. Check sample to be sure.
Enjoy!

Encoder Notes:Looking For Early Access To Anything You Can Provide DVDScr, R5, DVDR, BluRay, Direct
Audio, Music Releases and Seedboxes. We require dedicated servers, so as to do more 
and fast releases of movies.
If You Got anything to offer please contact us at "prg@hush.com".

Face book Fan Page:   
http://www.fb.me/p2pdl